<svg xmlns="http://www.w3.org/2000/svg" viewBox="0 0 11.71 25.2"><defs><style>.cls-1{fill:#445641;fill-rule:evenodd;}</style></defs><g id="Layer_2" data-name="Layer 2"><g id="Layer_1-2" data-name="Layer 1"><path class="cls-1" d="M2.58,12.7V24.88a.32.32,0,0,0,.32.32H7.42a.32.32,0,0,0,.32-.32V12.5H11a.32.32,0,0,0,.31-.29l.32-3.73a.32.32,0,0,0-.32-.35H7.74V5.49A1.13,1.13,0,0,1,8.86,4.36h2.53a.32.32,0,0,0,.32-.31V.32A.32.32,0,0,0,11.39,0H7.12A4.54,4.54,0,0,0,2.58,4.54V8.13H.32A.32.32,0,0,0,0,8.45v3.73a.32.32,0,0,0,.32.32H2.58Z"/></g></g></svg>