<svg xmlns="http://www.w3.org/2000/svg" viewBox="0 0 25.2 25.2"><defs><style>.cls-1{fill:#445641;}</style></defs><g id="Layer_2" data-name="Layer 2"><g id="Layer_1-2" data-name="Layer 1"><path class="cls-1" d="M19.23,4.64a1.48,1.48,0,1,0,1.48,1.48A1.48,1.48,0,0,0,19.23,4.64Zm-6.59,1.9a6.22,6.22,0,1,0,6.22,6.22A6.23,6.23,0,0,0,12.64,6.54Zm0,10.21a4,4,0,1,1,4-4A4,4,0,0,1,12.64,16.75ZM25.2,7.59A7.59,7.59,0,0,0,17.61,0h-10A7.59,7.59,0,0,0,0,7.59v10A7.59,7.59,0,0,0,7.59,25.2h10a7.59,7.59,0,0,0,7.59-7.59Zm-2.38,10a5.21,5.21,0,0,1-5.21,5.21h-10a5.21,5.21,0,0,1-5.21-5.21v-10A5.21,5.21,0,0,1,7.59,2.38h10a5.21,5.21,0,0,1,5.21,5.21Z"/></g></g></svg>