<svg xmlns="http://www.w3.org/2000/svg" viewBox="0 0 36.33 25.2"><defs><style>.cls-1{fill:#445641;}</style></defs><g id="Layer_2" data-name="Layer 2"><g id="Layer_1-2" data-name="Layer 1"><path class="cls-1" d="M33.2,25.2H3.13A3.14,3.14,0,0,1,0,22.06V3.13A3.14,3.14,0,0,1,3.13,0H33.2a3.13,3.13,0,0,1,3.13,3.13V22.06A3.14,3.14,0,0,1,33.2,25.2ZM3.13,2.46a.67.67,0,0,0-.67.67V22.06a.67.67,0,0,0,.67.68H33.2a.68.68,0,0,0,.68-.68V3.13a.68.68,0,0,0-.68-.67Z"/><path class="cls-1" d="M18.14,18.79a3.53,3.53,0,0,1-2.33-.87L.35,2.09,2.11.37,17.49,16.13a1.15,1.15,0,0,0,1.43-.07L34.23.37,36,2.09,20.6,17.84A3.72,3.72,0,0,1,18.14,18.79Z"/></g></g></svg>